<svg xmlns="http://www.w3.org/2000/svg" width="888" height="320" viewBox="0 0 888 320">
  <g fill="#88C0D0">
    <path d="M532.823 287.976c-.24-7.01-4.943-9.457-11.137-9.457-4.848 0-10.752 1.729-10.752 7.873 0 6.191 5.951 6.912 11.809 8.305 6.385 1.631 11.713 2.398 11.713 9.553 0 6.48-6.24 9.217-12.098 9.217-7.775 0-13.537-3.553-13.393-12.193h.959c0 8.209 5.137 11.232 12.434 11.232 5.377 0 11.137-2.4 11.137-8.305 0-6.912-6.721-7.488-12-8.785-5.568-1.295-11.521-2.305-11.521-9.023 0-6.818 6.193-8.834 11.713-8.834 6.721 0 11.762 2.736 12.098 10.418h-.962zM478.82 278.374h12.001c6.818 0 14.594 3.648 14.594 17.137 0 12.289-7.824 17.139-16.08 17.139H478.82v-34.276zm.961 33.314h9.792c8.113 0 14.883-5.137 14.883-16.178 0-12.816-7.01-16.176-13.873-16.176h-10.802v32.354zM472.678 278.374h.961v34.275h-.961v-34.275zM442.535 295.271v17.379h-.961v-34.275h.961v15.938h24.002v-15.938h.959v34.275h-.959v-17.379h-24.002zM435.144 287.976c-.24-7.01-4.944-9.457-11.137-9.457-4.849 0-10.753 1.729-10.753 7.873 0 6.191 5.952 6.912 11.809 8.305 6.385 1.631 11.713 2.398 11.713 9.553 0 6.48-6.24 9.217-12.097 9.217-7.776 0-13.537-3.553-13.394-12.193h.96c0 8.209 5.137 11.232 12.434 11.232 5.376 0 11.137-2.4 11.137-8.305 0-6.912-6.721-7.488-12.001-8.785-5.568-1.295-11.521-2.305-11.521-9.023 0-6.818 6.192-8.834 11.713-8.834 6.721 0 11.761 2.736 12.097 10.418h-.96zM387.144 301.368l-4.561 11.281h-1.104l13.92-34.275h1.249l13.537 34.275h-1.057l-4.513-11.281h-17.471zm17.088-.961l-8.16-21.072h-.097l-8.448 21.072h16.705zM354.504 295.271v17.379h-.96v-34.275h.96v15.938h24.002v-15.938h.96v34.275h-.96v-17.379h-24.002z"/>
  </g>
  <path fill="#2E3440" d="M468.889 172.448v76.449h32.007V142.226h-32.007v19.555h-10.664v-30.223h53.335v128h-53.335v-76.445h-19.56v-10.664h30.224zm-49.779 46.225v-76.447h-32v106.672h32v-19.559h10.665v30.219H376.44v-128h53.335v76.445h19.555v10.67h-30.22z"/>
  <path fill="#2E3440" stroke="#2E3440" stroke-width="8" stroke-miterlimit="10" d="M328.755 6.534h85.023v85.023h-85.023z"/>
  <g fill="#D8DEE9">
    <path d="M390.616 24.311h10.414v52.075h-10.414zM378.339 29.519h10.414v52.075h-10.414zM366.061 20.406h10.416v52.073h-10.416zM353.78 16.502h10.417v52.072H353.78zM341.503 24.31h10.415v52.076h-10.415z"/>
  </g>
  <g>
    <g fill="#2E3440">
      <path d="M546.452 58.595c0 .891-.734 1.592-1.594 1.592h-11.127a1.578 1.578 0 0 1-1.594-1.592V39.53c0-.893.701-1.595 1.594-1.595h11.127c.859 0 1.594.702 1.594 1.595s-.734 1.594-1.594 1.594h-9.531v6.407h7.268a1.6 1.6 0 0 1 1.594 1.596c0 .892-.732 1.593-1.594 1.593h-7.268v6.279h9.531a1.6 1.6 0 0 1 1.594 1.596zM525.567 50.528l4.465 7.268a1.615 1.615 0 0 1-.543 2.201c-.254.16-.541.223-.828.223-.541 0-1.053-.287-1.371-.766l-5.291-8.671h-3.252v7.874c0 .893-.734 1.563-1.594 1.563-.893 0-1.596-.67-1.596-1.563V39.594c0-.86.734-1.594 1.627-1.594h6.76c3.219 0 6.311 2.741 6.344 6.312 0 2.838-1.914 5.196-4.721 6.216zm1.563-6.184c-.031-1.785-1.498-3.156-3.314-3.156h-5.068v6.408h5.068a3.299 3.299 0 0 0 3.314-3.252zM491.677 48.967c0-5.994 4.879-11.031 11.031-11.031 6.154 0 11.031 5.037 11.031 11.031 0 6.152-4.877 11.22-11.031 11.22-6.152 0-11.031-5.068-11.031-11.22zm3.092 0c0 4.526 3.572 8.129 7.939 8.129s7.971-3.603 7.971-8.129c0-4.368-3.604-7.938-7.971-7.938s-7.939 3.57-7.939 7.938zM469.391 49.127c0-6.281 5.133-11.223 11.254-11.223 4.019 0 7.62 2.072 9.532 5.515.574.957.191 1.944-.574 2.295-.732.383-1.721.192-2.104-.573-1.498-2.487-4.018-3.984-6.854-3.984-4.367 0-8.002 3.602-8.002 7.971 0 4.397 3.635 7.841 8.002 7.841a7.966 7.966 0 0 0 6.663-3.634c.383-.766 1.563-.957 2.105-.383.764.383 1.146 1.371.572 2.104-2.104 3.252-5.514 5.164-9.341 5.164-6.121 0-11.253-4.973-11.253-11.093zM468.846 58.595c0 .891-.732 1.592-1.592 1.592h-11.127a1.578 1.578 0 0 1-1.594-1.592V39.53c0-.893.701-1.595 1.594-1.595h11.127c.859 0 1.592.702 1.592 1.595s-.732 1.594-1.592 1.594h-9.533v6.407h7.268c.861 0 1.596.702 1.596 1.596a1.6 1.6 0 0 1-1.596 1.593h-7.268v6.279h9.533a1.6 1.6 0 0 1 1.592 1.596zM431.577 49.127c0-6.281 5.133-11.223 11.254-11.223 4.017 0 7.619 2.072 9.531 5.515.574.957.191 1.944-.572 2.295-.734.383-1.723.192-2.105-.573-1.498-2.487-4.016-3.984-6.853-3.984-4.367 0-8.003 3.602-8.003 7.971 0 4.397 3.636 7.841 8.003 7.841a7.966 7.966 0 0 0 6.662-3.634c.383-.766 1.563-.957 2.105-.383.764.383 1.146 1.371.574 2.104-2.105 3.252-5.516 5.164-9.341 5.164-6.123 0-11.255-4.973-11.255-11.093zM426.571 58.657V39.403c0-.862.701-1.563 1.594-1.563.861 0 1.563.7 1.563 1.563v19.254c0 .893-.701 1.594-1.563 1.594a1.578 1.578 0 0 1-1.594-1.594z"/>
    </g>
    <path fill="none" stroke="#2E3440" stroke-width="8" stroke-miterlimit="10" d="M413.778 6.534h145.467v85.024H413.778"/>
  </g>
</svg>
